<svg viewBox="0 0 125.39 101.9"><title>Twitter</title><path d="M125.39,12.06a51.43,51.43,0,0,1-14.78,4.05A25.8,25.8,0,0,0,121.93,1.88a51.51,51.51,0,0,1-16.34,6.24A25.75,25.75,0,0,0,61.75,31.59a73,73,0,0,1-53-26.88,25.75,25.75,0,0,0,8,34.35A25.62,25.62,0,0,1,5,35.84c0,0.11,0,.22,0,0.32A25.74,25.74,0,0,0,25.67,61.38a25.79,25.79,0,0,1-11.62.44,25.75,25.75,0,0,0,24,17.87,51.62,51.62,0,0,1-31.95,11A52.37,52.37,0,0,1,0,90.34,72.81,72.81,0,0,0,39.43,101.9c47.32,0,73.19-39.2,73.19-73.19q0-1.67-.07-3.33A52.28,52.28,0,0,0,125.39,12.06Z" style="fill:#55acee"/></svg>